<svg width="166" height="127" viewBox="0 0 166 127" fill="none" xmlns="http://www.w3.org/2000/svg">
<g filter="url(#filter0_d_815_1320)">
<path d="M159.261 6.4689C153.966 6.4689 148.731 5.56976 143.575 4.6322C133.023 2.71372 122.006 2.00125 111.209 2.00125C106.956 2.00125 102.704 2.00125 98.4513 2.00125C95.4348 2.00125 89.0196 1.90752 86.4383 3.34155C84.477 4.43116 81.0922 4.93284 78.8433 5.57537C76.1211 6.35315 73.8379 8.18976 71.1987 9.14949C61.2659 12.7614 54.6388 22.9541 50.4489 32.3813C48.6086 36.522 49.3568 41.736 49.3568 46.231C49.3568 52.2573 53.7524 51.7254 56.5051 55.1663C58.5754 57.7542 65.1609 59.1872 68.1209 59.1872C74.4259 59.1872 76.1627 58.0587 76.1627 51.5922C76.1627 42.6771 58.7359 38.636 52.0374 38.636C45.9509 38.636 41.3242 40.0735 35.5071 41.3662C30.5431 42.4693 23.2916 50.7217 21.6574 55.2159C17.0142 67.9848 16.4489 81.9836 20.7639 94.9284" stroke="black" stroke-width="3" stroke-linecap="round" shape-rendering="crispEdges"/>
</g>
<g filter="url(#filter1_d_815_1320)">
<path d="M2 103.864C6.07886 103.864 16.2624 106.278 18.9771 109.672C20.0316 110.99 22.5512 115.415 22.5512 114.139C22.5512 105.502 28.6445 99.9187 35.0606 94.9283" stroke="black" stroke-width="3" stroke-linecap="round"/>
</g>
<defs>
<filter id="filter0_d_815_1320" x="15.8291" y="0.499939" width="149.432" height="106.429" filterUnits="userSpaceOnUse" color-interpolation-filters="sRGB">
<feFlood flood-opacity="0" result="BackgroundImageFix"/>
<feColorMatrix in="SourceAlpha" type="matrix" values="0 0 0 0 0 0 0 0 0 0 0 0 0 0 0 0 0 0 127 0" result="hardAlpha"/>
<feOffset dx="2" dy="8"/>
<feGaussianBlur stdDeviation="1.25"/>
<feComposite in2="hardAlpha" operator="out"/>
<feColorMatrix type="matrix" values="0 0 0 0 0 0 0 0 0 0 0 0 0 0 0 0 0 0 0.25 0"/>
<feBlend mode="normal" in2="BackgroundImageFix" result="effect1_dropShadow_815_1320"/>
<feBlend mode="normal" in="SourceGraphic" in2="effect1_dropShadow_815_1320" result="shape"/>
</filter>
<filter id="filter1_d_815_1320" x="0" y="93.4283" width="41.0605" height="32.9394" filterUnits="userSpaceOnUse" color-interpolation-filters="sRGB">
<feFlood flood-opacity="0" result="BackgroundImageFix"/>
<feColorMatrix in="SourceAlpha" type="matrix" values="0 0 0 0 0 0 0 0 0 0 0 0 0 0 0 0 0 0 127 0" result="hardAlpha"/>
<feOffset dx="2" dy="8"/>
<feGaussianBlur stdDeviation="1.25"/>
<feComposite in2="hardAlpha" operator="out"/>
<feColorMatrix type="matrix" values="0 0 0 0 0 0 0 0 0 0 0 0 0 0 0 0 0 0 0.25 0"/>
<feBlend mode="normal" in2="BackgroundImageFix" result="effect1_dropShadow_815_1320"/>
<feBlend mode="normal" in="SourceGraphic" in2="effect1_dropShadow_815_1320" result="shape"/>
</filter>
</defs>
</svg>
